<svg xmlns="http://www.w3.org/2000/svg" viewBox="587 0 560 1020" enable-background="new 587 0 560 1020"><path fill="#444" d="M1050.2 826.6l-11.3 46.1c-33.8 13.4-60.9 23.5-81 30.5s-43.6 10.5-70.3 10.5c-41 0-72.9-10-95.6-30-22.7-20-34.1-45.4-34.1-76.2 0-11.9.8-24.2 2.6-36.7 1.7-12.5 4.5-26.6 8.2-42.3l42.3-149.5c3.8-14.3 7-27.9 9.5-40.8 2.6-12.8 3.9-24.5 3.9-35.1 0-19.1-3.9-32.5-11.8-40s-22.9-11.3-45.2-11.3c-11 0-22.2 1.8-33.6 5.2-11.5 3.4-21.3 6.7-29.6 9.7l11.3-46.2c27.7-11.3 54.2-20.9 79.5-29 25.3-8 49.3-12.1 71.9-12.1 40.7 0 72.1 9.8 94.2 29.5 22 19.7 33.1 45.2 33.1 76.7 0 6.5-.7 18-2.3 34.3-1.5 16.4-4.4 31.5-8.5 45.2l-42.1 149.2c-3.4 12-6.5 25.7-9.2 41.1-2.8 15.3-4.1 27-4.1 34.9 0 19.8 4.4 33.3 13.3 40.5 8.9 7.2 24.3 10.8 46.1 10.8 10.3 0 21.9-1.8 34.9-5.4s22.1-6.8 27.9-9.6zm10.7-626.1c0 26-9.8 48.2-29.5 66.4-19.6 18.3-43.3 27.5-71 27.5-27.8 0-51.5-9.1-71.3-27.5-19.8-18.2-29.7-40.4-29.7-66.4 0-25.9 9.9-48.2 29.7-66.6s43.6-27.7 71.3-27.7c27.7 0 51.3 9.2 71 27.7 19.7 18.4 29.5 40.7 29.5 66.6z"/></svg>